<mxfile host="app.diagrams.net" agent="Mozilla/5.0 (Macintosh; Intel Mac OS X 10_15_7) AppleWebKit/537.36 (KHTML, like Gecko) Chrome/130.0.0.0 Safari/537.36" version="24.8.3">
  <diagram name="Page-1" id="76OfWBRYR0Az5T-r6C75">
    <mxGraphModel dx="267" dy="333" grid="1" gridSize="10" guides="1" tooltips="1" connect="1" arrows="1" fold="1" page="1" pageScale="1" pageWidth="827" pageHeight="1169" math="0" shadow="0">
      <root>
        <mxCell id="0" />
        <mxCell id="1" parent="0" />
        <mxCell id="pXQFVFfp53a1OsTelWcV-26" style="edgeStyle=orthogonalEdgeStyle;rounded=0;orthogonalLoop=1;jettySize=auto;html=1;exitX=0.5;exitY=1;exitDx=0;exitDy=0;" edge="1" parent="1" source="pXQFVFfp53a1OsTelWcV-25" target="pXQFVFfp53a1OsTelWcV-1">
          <mxGeometry relative="1" as="geometry" />
        </mxCell>
        <mxCell id="pXQFVFfp53a1OsTelWcV-27" value="Summarize" style="edgeLabel;html=1;align=center;verticalAlign=middle;resizable=0;points=[];" vertex="1" connectable="0" parent="pXQFVFfp53a1OsTelWcV-26">
          <mxGeometry x="0.3423" y="2" relative="1" as="geometry">
            <mxPoint as="offset" />
          </mxGeometry>
        </mxCell>
        <mxCell id="pXQFVFfp53a1OsTelWcV-25" value="" style="rounded=0;whiteSpace=wrap;html=1;" vertex="1" parent="1">
          <mxGeometry x="114" y="185" width="196" height="185" as="geometry" />
        </mxCell>
        <mxCell id="pXQFVFfp53a1OsTelWcV-51" value="" style="edgeStyle=orthogonalEdgeStyle;rounded=0;orthogonalLoop=1;jettySize=auto;html=1;" edge="1" parent="1" source="pXQFVFfp53a1OsTelWcV-1" target="pXQFVFfp53a1OsTelWcV-46">
          <mxGeometry relative="1" as="geometry" />
        </mxCell>
        <mxCell id="pXQFVFfp53a1OsTelWcV-1" value="" style="shape=image;html=1;verticalAlign=top;verticalLabelPosition=bottom;labelBackgroundColor=#ffffff;imageAspect=0;aspect=fixed;image=https://cdn2.iconfinder.com/data/icons/boxicons-regular-vol-1/24/bx-brain-128.png" vertex="1" parent="1">
          <mxGeometry x="390" y="350" width="128" height="128" as="geometry" />
        </mxCell>
        <mxCell id="pXQFVFfp53a1OsTelWcV-2" value="" style="ellipse;whiteSpace=wrap;html=1;aspect=fixed;" vertex="1" parent="1">
          <mxGeometry x="430" y="44" width="80" height="80" as="geometry" />
        </mxCell>
        <mxCell id="pXQFVFfp53a1OsTelWcV-3" value="" style="rhombus;whiteSpace=wrap;html=1;" vertex="1" parent="1">
          <mxGeometry x="540" y="44" width="80" height="80" as="geometry" />
        </mxCell>
        <mxCell id="pXQFVFfp53a1OsTelWcV-4" value="ChatMsg" style="text;html=1;align=center;verticalAlign=middle;whiteSpace=wrap;rounded=0;" vertex="1" parent="1">
          <mxGeometry x="144" y="200" width="60" height="30" as="geometry" />
        </mxCell>
        <mxCell id="pXQFVFfp53a1OsTelWcV-5" value="ChatMsg" style="text;html=1;align=center;verticalAlign=middle;whiteSpace=wrap;rounded=0;" vertex="1" parent="1">
          <mxGeometry x="238" y="210" width="60" height="30" as="geometry" />
        </mxCell>
        <mxCell id="pXQFVFfp53a1OsTelWcV-6" value="ChatMsg" style="text;html=1;align=center;verticalAlign=middle;whiteSpace=wrap;rounded=0;" vertex="1" parent="1">
          <mxGeometry x="144" y="230" width="60" height="30" as="geometry" />
        </mxCell>
        <mxCell id="pXQFVFfp53a1OsTelWcV-7" value="ChatMsg" style="text;html=1;align=center;verticalAlign=middle;whiteSpace=wrap;rounded=0;" vertex="1" parent="1">
          <mxGeometry x="238" y="240" width="60" height="30" as="geometry" />
        </mxCell>
        <mxCell id="pXQFVFfp53a1OsTelWcV-8" value="ChatMsg" style="text;html=1;align=center;verticalAlign=middle;whiteSpace=wrap;rounded=0;" vertex="1" parent="1">
          <mxGeometry x="144" y="260" width="60" height="30" as="geometry" />
        </mxCell>
        <mxCell id="pXQFVFfp53a1OsTelWcV-9" value="ChatMsg" style="text;html=1;align=center;verticalAlign=middle;whiteSpace=wrap;rounded=0;" vertex="1" parent="1">
          <mxGeometry x="238" y="270" width="60" height="30" as="geometry" />
        </mxCell>
        <mxCell id="pXQFVFfp53a1OsTelWcV-10" value="ChatMsg" style="text;html=1;align=center;verticalAlign=middle;whiteSpace=wrap;rounded=0;" vertex="1" parent="1">
          <mxGeometry x="144" y="290" width="60" height="30" as="geometry" />
        </mxCell>
        <mxCell id="pXQFVFfp53a1OsTelWcV-11" value="ChatMsg" style="text;html=1;align=center;verticalAlign=middle;whiteSpace=wrap;rounded=0;" vertex="1" parent="1">
          <mxGeometry x="238" y="300" width="60" height="30" as="geometry" />
        </mxCell>
        <mxCell id="pXQFVFfp53a1OsTelWcV-52" style="edgeStyle=orthogonalEdgeStyle;rounded=0;orthogonalLoop=1;jettySize=auto;html=1;entryX=0;entryY=0.75;entryDx=0;entryDy=0;exitX=0.005;exitY=0.789;exitDx=0;exitDy=0;exitPerimeter=0;" edge="1" parent="1" source="pXQFVFfp53a1OsTelWcV-25" target="pXQFVFfp53a1OsTelWcV-48">
          <mxGeometry relative="1" as="geometry">
            <Array as="points">
              <mxPoint x="80" y="331" />
              <mxPoint x="80" y="493" />
            </Array>
          </mxGeometry>
        </mxCell>
        <mxCell id="pXQFVFfp53a1OsTelWcV-20" value="ChatMsg" style="text;html=1;align=center;verticalAlign=middle;whiteSpace=wrap;rounded=0;" vertex="1" parent="1">
          <mxGeometry x="144" y="320" width="60" height="30" as="geometry" />
        </mxCell>
        <mxCell id="pXQFVFfp53a1OsTelWcV-21" value="ChatMsg" style="text;html=1;align=center;verticalAlign=middle;whiteSpace=wrap;rounded=0;" vertex="1" parent="1">
          <mxGeometry x="238" y="330" width="60" height="30" as="geometry" />
        </mxCell>
        <mxCell id="pXQFVFfp53a1OsTelWcV-22" value="After 10th message" style="text;html=1;align=center;verticalAlign=middle;whiteSpace=wrap;rounded=0;" vertex="1" parent="1">
          <mxGeometry x="350" y="270" width="60" height="30" as="geometry" />
        </mxCell>
        <mxCell id="pXQFVFfp53a1OsTelWcV-23" value="" style="shape=flexArrow;endArrow=classic;html=1;rounded=0;" edge="1" parent="1">
          <mxGeometry width="50" height="50" relative="1" as="geometry">
            <mxPoint x="330" y="190" as="sourcePoint" />
            <mxPoint x="330" y="370" as="targetPoint" />
          </mxGeometry>
        </mxCell>
        <mxCell id="pXQFVFfp53a1OsTelWcV-39" value="" style="rounded=0;whiteSpace=wrap;html=1;" vertex="1" parent="1">
          <mxGeometry x="544" y="335" width="196" height="185" as="geometry" />
        </mxCell>
        <mxCell id="pXQFVFfp53a1OsTelWcV-40" value="Vector" style="text;html=1;align=center;verticalAlign=middle;whiteSpace=wrap;rounded=0;" vertex="1" parent="1">
          <mxGeometry x="574" y="350" width="60" height="30" as="geometry" />
        </mxCell>
        <mxCell id="pXQFVFfp53a1OsTelWcV-41" value="ChatMsg" style="text;html=1;align=center;verticalAlign=middle;whiteSpace=wrap;rounded=0;" vertex="1" parent="1">
          <mxGeometry x="668" y="360" width="60" height="30" as="geometry" />
        </mxCell>
        <mxCell id="pXQFVFfp53a1OsTelWcV-42" value="ChatMsg" style="text;html=1;align=center;verticalAlign=middle;whiteSpace=wrap;rounded=0;" vertex="1" parent="1">
          <mxGeometry x="574" y="380" width="60" height="30" as="geometry" />
        </mxCell>
        <mxCell id="pXQFVFfp53a1OsTelWcV-43" value="ChatMsg" style="text;html=1;align=center;verticalAlign=middle;whiteSpace=wrap;rounded=0;" vertex="1" parent="1">
          <mxGeometry x="668" y="390" width="60" height="30" as="geometry" />
        </mxCell>
        <mxCell id="pXQFVFfp53a1OsTelWcV-44" value="ChatMsg" style="text;html=1;align=center;verticalAlign=middle;whiteSpace=wrap;rounded=0;" vertex="1" parent="1">
          <mxGeometry x="574" y="410" width="60" height="30" as="geometry" />
        </mxCell>
        <mxCell id="pXQFVFfp53a1OsTelWcV-45" value="ChatMsg" style="text;html=1;align=center;verticalAlign=middle;whiteSpace=wrap;rounded=0;" vertex="1" parent="1">
          <mxGeometry x="668" y="420" width="60" height="30" as="geometry" />
        </mxCell>
        <mxCell id="pXQFVFfp53a1OsTelWcV-46" value="ChatMsg" style="text;html=1;align=center;verticalAlign=middle;whiteSpace=wrap;rounded=0;" vertex="1" parent="1">
          <mxGeometry x="574" y="440" width="60" height="30" as="geometry" />
        </mxCell>
        <mxCell id="pXQFVFfp53a1OsTelWcV-47" value="ChatMsg" style="text;html=1;align=center;verticalAlign=middle;whiteSpace=wrap;rounded=0;" vertex="1" parent="1">
          <mxGeometry x="668" y="450" width="60" height="30" as="geometry" />
        </mxCell>
        <mxCell id="pXQFVFfp53a1OsTelWcV-48" value="ChatMsg" style="text;html=1;align=center;verticalAlign=middle;whiteSpace=wrap;rounded=0;" vertex="1" parent="1">
          <mxGeometry x="574" y="470" width="60" height="30" as="geometry" />
        </mxCell>
        <mxCell id="pXQFVFfp53a1OsTelWcV-49" value="ChatMsg" style="text;html=1;align=center;verticalAlign=middle;whiteSpace=wrap;rounded=0;" vertex="1" parent="1">
          <mxGeometry x="668" y="480" width="60" height="30" as="geometry" />
        </mxCell>
        <mxCell id="pXQFVFfp53a1OsTelWcV-50" value="" style="shape=flexArrow;endArrow=classic;html=1;rounded=0;" edge="1" parent="1">
          <mxGeometry width="50" height="50" relative="1" as="geometry">
            <mxPoint x="760" y="340" as="sourcePoint" />
            <mxPoint x="760" y="520" as="targetPoint" />
          </mxGeometry>
        </mxCell>
      </root>
    </mxGraphModel>
  </diagram>
</mxfile>
